<svg width="164" height="63" viewBox="0 0 164 63" fill="none" xmlns="http://www.w3.org/2000/svg">
<circle cx="31.5" cy="31.5" r="31.5" fill="#F2F7FF"/>
<path d="M35.308 28.268C35.308 25.7373 34.8573 22.9813 33.956 20H47.84C47.8747 20.52 47.892 21.2827 47.892 22.288C47.892 26.7253 47.3027 30.3827 46.124 33.26C42.9347 34.6467 40.3693 36.0507 38.428 37.472C36.5213 38.8587 35.568 40.2973 35.568 41.788C35.568 43.2787 36.2093 44.6827 37.492 46H24.44C18.5813 38.5467 14.9067 29.88 13.416 20H27.612C27.7507 26.344 29.38 32.532 32.5 38.564C34.372 35.444 35.308 32.012 35.308 28.268Z" fill="url(#paint0_linear)"/>
<path d="M110.408 17.403L98.144 48H91.718L79.454 17.403H85.166C85.782 17.403 86.279 17.55 86.657 17.844C87.035 18.124 87.322 18.488 87.518 18.936L93.44 35.316C93.72 36.03 93.993 36.814 94.259 37.668C94.525 38.508 94.777 39.39 95.015 40.314C95.211 39.39 95.428 38.508 95.666 37.668C95.918 36.814 96.184 36.03 96.464 35.316L102.344 18.936C102.498 18.544 102.771 18.194 103.163 17.886C103.569 17.564 104.066 17.403 104.654 17.403H110.408ZM122.082 34.497C122.082 33.979 122.012 33.475 121.872 32.985C121.746 32.495 121.529 32.061 121.221 31.683C120.927 31.291 120.535 30.976 120.045 30.738C119.555 30.5 118.96 30.381 118.26 30.381C117.028 30.381 116.062 30.738 115.362 31.452C114.662 32.152 114.2 33.167 113.976 34.497H122.082ZM113.892 38.277C114.102 40.097 114.655 41.42 115.551 42.246C116.447 43.058 117.602 43.464 119.016 43.464C119.772 43.464 120.423 43.373 120.969 43.191C121.515 43.009 121.998 42.806 122.418 42.582C122.852 42.358 123.244 42.155 123.594 41.973C123.958 41.791 124.336 41.7 124.728 41.7C125.246 41.7 125.638 41.889 125.904 42.267L127.794 44.598C127.122 45.368 126.394 45.998 125.61 46.488C124.84 46.964 124.042 47.342 123.216 47.622C122.404 47.888 121.585 48.07 120.759 48.168C119.947 48.28 119.17 48.336 118.428 48.336C116.902 48.336 115.467 48.091 114.123 47.601C112.793 47.097 111.624 46.355 110.616 45.375C109.622 44.395 108.831 43.177 108.243 41.721C107.669 40.265 107.382 38.571 107.382 36.639C107.382 35.183 107.627 33.804 108.117 32.502C108.621 31.2 109.335 30.059 110.259 29.079C111.197 28.099 112.324 27.322 113.64 26.748C114.97 26.174 116.468 25.887 118.134 25.887C119.576 25.887 120.892 26.111 122.082 26.559C123.286 27.007 124.315 27.658 125.169 28.512C126.037 29.366 126.709 30.416 127.185 31.662C127.675 32.894 127.92 34.294 127.92 35.862C127.92 36.352 127.899 36.751 127.857 37.059C127.815 37.367 127.738 37.612 127.626 37.794C127.514 37.976 127.36 38.102 127.164 38.172C126.982 38.242 126.744 38.277 126.45 38.277H113.892ZM145.017 30.99C144.849 31.256 144.667 31.445 144.471 31.557C144.289 31.669 144.051 31.725 143.757 31.725C143.449 31.725 143.141 31.662 142.833 31.536C142.525 31.396 142.189 31.249 141.825 31.095C141.475 30.941 141.076 30.801 140.628 30.675C140.18 30.535 139.669 30.465 139.095 30.465C138.269 30.465 137.632 30.626 137.184 30.948C136.75 31.256 136.533 31.69 136.533 32.25C136.533 32.656 136.673 32.992 136.953 33.258C137.247 33.524 137.632 33.762 138.108 33.972C138.584 34.168 139.123 34.357 139.725 34.539C140.327 34.721 140.943 34.924 141.573 35.148C142.203 35.372 142.819 35.638 143.421 35.946C144.023 36.24 144.562 36.611 145.038 37.059C145.514 37.493 145.892 38.025 146.172 38.655C146.466 39.285 146.613 40.041 146.613 40.923C146.613 42.001 146.417 42.995 146.025 43.905C145.633 44.815 145.045 45.599 144.261 46.257C143.491 46.915 142.532 47.426 141.384 47.79C140.25 48.154 138.941 48.336 137.457 48.336C136.715 48.336 135.973 48.266 135.231 48.126C134.489 47.986 133.768 47.797 133.068 47.559C132.382 47.321 131.745 47.041 131.157 46.719C130.569 46.383 130.065 46.026 129.645 45.648L131.157 43.254C131.325 42.974 131.535 42.757 131.787 42.603C132.053 42.435 132.389 42.351 132.795 42.351C133.173 42.351 133.509 42.435 133.803 42.603C134.111 42.771 134.44 42.953 134.79 43.149C135.14 43.345 135.546 43.527 136.008 43.695C136.484 43.863 137.079 43.947 137.793 43.947C138.297 43.947 138.724 43.898 139.074 43.8C139.424 43.688 139.704 43.541 139.914 43.359C140.124 43.177 140.278 42.974 140.376 42.75C140.474 42.526 140.523 42.295 140.523 42.057C140.523 41.623 140.376 41.266 140.082 40.986C139.788 40.706 139.403 40.468 138.927 40.272C138.451 40.062 137.905 39.873 137.289 39.705C136.687 39.523 136.071 39.32 135.441 39.096C134.811 38.872 134.188 38.606 133.572 38.298C132.97 37.976 132.431 37.577 131.955 37.101C131.479 36.611 131.094 36.016 130.8 35.316C130.506 34.616 130.359 33.769 130.359 32.775C130.359 31.851 130.534 30.976 130.884 30.15C131.248 29.31 131.787 28.575 132.501 27.945C133.215 27.315 134.111 26.818 135.189 26.454C136.267 26.076 137.527 25.887 138.969 25.887C139.753 25.887 140.509 25.957 141.237 26.097C141.979 26.237 142.672 26.433 143.316 26.685C143.96 26.937 144.548 27.238 145.08 27.588C145.612 27.924 146.081 28.295 146.487 28.701L145.017 30.99ZM157.672 48.336C156.636 48.336 155.719 48.189 154.921 47.895C154.137 47.587 153.472 47.16 152.926 46.614C152.394 46.054 151.988 45.382 151.708 44.598C151.428 43.814 151.288 42.939 151.288 41.973V30.717H149.44C149.104 30.717 148.817 30.612 148.579 30.402C148.341 30.178 148.222 29.856 148.222 29.436V26.895L151.687 26.223L152.968 20.91C153.136 20.238 153.612 19.902 154.396 19.902H157.798V26.265H163.195V30.717H157.798V41.532C157.798 42.036 157.917 42.456 158.155 42.792C158.407 43.114 158.764 43.275 159.226 43.275C159.464 43.275 159.66 43.254 159.814 43.212C159.982 43.156 160.122 43.1 160.234 43.044C160.36 42.974 160.472 42.918 160.57 42.876C160.682 42.82 160.808 42.792 160.948 42.792C161.144 42.792 161.298 42.841 161.41 42.939C161.536 43.023 161.662 43.163 161.788 43.359L163.762 46.446C162.922 47.076 161.977 47.552 160.927 47.874C159.877 48.182 158.792 48.336 157.672 48.336Z" fill="url(#paint1_linear)"/>
<defs>
<linearGradient id="paint0_linear" x1="30.875" y1="10" x2="57.6119" y2="41.2913" gradientUnits="userSpaceOnUse">
<stop stop-color="#2772F8"/>
<stop offset="1" stop-color="#4DF8F8" stop-opacity="0.98"/>
</linearGradient>
<linearGradient id="paint1_linear" x1="122" y1="7" x2="185.5" y2="66" gradientUnits="userSpaceOnUse">
<stop stop-color="#2772F8"/>
<stop offset="1" stop-color="#4DF8F8" stop-opacity="0.98"/>
</linearGradient>
</defs>
</svg>
