<svg width="166" height="61" viewBox="0 0 166 61" fill="none" xmlns="http://www.w3.org/2000/svg">
<path d="M61.368 0.262999L37.424 60H24.878L0.934 0.262999H12.086C13.2887 0.262999 14.259 0.549998 14.997 1.124C15.735 1.67066 16.2953 2.38133 16.678 3.256L28.24 35.236C28.7867 36.63 29.3197 38.1607 29.839 39.828C30.3583 41.468 30.8503 43.19 31.315 44.994C31.6977 43.19 32.1213 41.468 32.586 39.828C33.078 38.1607 33.5973 36.63 34.144 35.236L45.624 3.256C45.9247 2.49066 46.4577 1.80733 47.223 1.206C48.0157 0.577333 48.986 0.262999 50.134 0.262999H61.368ZM84.1602 33.637C84.1602 32.6257 84.0235 31.6417 83.7502 30.685C83.5042 29.7283 83.0805 28.881 82.4792 28.143C81.9052 27.3777 81.1398 26.7627 80.1832 26.298C79.2265 25.8333 78.0648 25.601 76.6982 25.601C74.2928 25.601 72.4068 26.298 71.0402 27.692C69.6735 29.0587 68.7715 31.0403 68.3342 33.637H84.1602ZM68.1702 41.017C68.5802 44.5703 69.6598 47.1533 71.4092 48.766C73.1585 50.3513 75.4135 51.144 78.1742 51.144C79.6502 51.144 80.9212 50.9663 81.9872 50.611C83.0532 50.2557 83.9962 49.8593 84.8162 49.422C85.6635 48.9847 86.4288 48.5883 87.1122 48.233C87.8228 47.8777 88.5608 47.7 89.3262 47.7C90.3375 47.7 91.1028 48.069 91.6222 48.807L95.3122 53.358C94.0002 54.8613 92.5788 56.0913 91.0482 57.048C89.5448 57.9773 87.9868 58.7153 86.3742 59.262C84.7888 59.7813 83.1898 60.1367 81.5772 60.328C79.9918 60.5467 78.4748 60.656 77.0262 60.656C74.0468 60.656 71.2452 60.1777 68.6212 59.221C66.0245 58.237 63.7422 56.7883 61.7742 54.875C59.8335 52.9617 58.2892 50.5837 57.1412 47.741C56.0205 44.8983 55.4602 41.591 55.4602 37.819C55.4602 34.9763 55.9385 32.284 56.8952 29.742C57.8792 27.2 59.2732 24.9723 61.0772 23.059C62.9085 21.1457 65.1088 19.6287 67.6782 18.508C70.2748 17.3873 73.1995 16.827 76.4522 16.827C79.2675 16.827 81.8368 17.2643 84.1602 18.139C86.5108 19.0137 88.5198 20.2847 90.1872 21.952C91.8818 23.6193 93.1938 25.6693 94.1232 28.102C95.0798 30.5073 95.5582 33.2407 95.5582 36.302C95.5582 37.2587 95.5172 38.0377 95.4352 38.639C95.3532 39.2403 95.2028 39.7187 94.9842 40.074C94.7655 40.4293 94.4648 40.6753 94.0822 40.812C93.7268 40.9487 93.2622 41.017 92.6882 41.017H68.1702ZM128.937 26.79C128.609 27.3093 128.254 27.6783 127.871 27.897C127.516 28.1157 127.051 28.225 126.477 28.225C125.876 28.225 125.275 28.102 124.673 27.856C124.072 27.5827 123.416 27.2957 122.705 26.995C122.022 26.6943 121.243 26.421 120.368 26.175C119.494 25.9017 118.496 25.765 117.375 25.765C115.763 25.765 114.519 26.0793 113.644 26.708C112.797 27.3093 112.373 28.1567 112.373 29.25C112.373 30.0427 112.647 30.6987 113.193 31.218C113.767 31.7373 114.519 32.202 115.448 32.612C116.378 32.9947 117.43 33.3637 118.605 33.719C119.781 34.0743 120.983 34.4707 122.213 34.908C123.443 35.3453 124.646 35.8647 125.821 36.466C126.997 37.04 128.049 37.7643 128.978 38.639C129.908 39.4863 130.646 40.525 131.192 41.755C131.766 42.985 132.053 44.461 132.053 46.183C132.053 48.2877 131.671 50.2283 130.905 52.005C130.14 53.7817 128.992 55.3123 127.461 56.597C125.958 57.8817 124.086 58.8793 121.844 59.59C119.63 60.3007 117.075 60.656 114.177 60.656C112.729 60.656 111.28 60.5193 109.831 60.246C108.383 59.9727 106.975 59.6037 105.608 59.139C104.269 58.6743 103.025 58.1277 101.877 57.499C100.729 56.843 99.7453 56.146 98.9253 55.408L101.877 50.734C102.205 50.1873 102.615 49.7637 103.107 49.463C103.627 49.135 104.283 48.971 105.075 48.971C105.813 48.971 106.469 49.135 107.043 49.463C107.645 49.791 108.287 50.1463 108.97 50.529C109.654 50.9117 110.446 51.267 111.348 51.595C112.278 51.923 113.439 52.087 114.833 52.087C115.817 52.087 116.651 51.9913 117.334 51.8C118.018 51.5813 118.564 51.2943 118.974 50.939C119.384 50.5837 119.685 50.1873 119.876 49.75C120.068 49.3127 120.163 48.8617 120.163 48.397C120.163 47.5497 119.876 46.8527 119.302 46.306C118.728 45.7593 117.977 45.2947 117.047 44.912C116.118 44.502 115.052 44.133 113.849 43.805C112.674 43.4497 111.471 43.0533 110.241 42.616C109.011 42.1787 107.795 41.6593 106.592 41.058C105.417 40.4293 104.365 39.6503 103.435 38.721C102.506 37.7643 101.754 36.6027 101.18 35.236C100.606 33.8693 100.319 32.2157 100.319 30.275C100.319 28.471 100.661 26.7627 101.344 25.15C102.055 23.51 103.107 22.075 104.501 20.845C105.895 19.615 107.645 18.6447 109.749 17.934C111.854 17.196 114.314 16.827 117.129 16.827C118.66 16.827 120.136 16.9637 121.557 17.237C123.006 17.5103 124.359 17.893 125.616 18.385C126.874 18.877 128.022 19.4647 129.06 20.148C130.099 20.804 131.015 21.5283 131.807 22.321L128.937 26.79ZM153.645 60.656C151.622 60.656 149.832 60.369 148.274 59.795C146.743 59.1937 145.445 58.36 144.379 57.294C143.34 56.2007 142.548 54.8887 142.001 53.358C141.454 51.8273 141.181 50.119 141.181 48.233V26.257H137.573C136.917 26.257 136.357 26.052 135.892 25.642C135.427 25.2047 135.195 24.576 135.195 23.756V18.795L141.96 17.483L144.461 7.11C144.789 5.798 145.718 5.142 147.249 5.142H153.891V17.565H164.428V26.257H153.891V47.372C153.891 48.356 154.123 49.176 154.588 49.832C155.08 50.4607 155.777 50.775 156.679 50.775C157.144 50.775 157.526 50.734 157.827 50.652C158.155 50.5427 158.428 50.4333 158.647 50.324C158.893 50.1873 159.112 50.078 159.303 49.996C159.522 49.8867 159.768 49.832 160.041 49.832C160.424 49.832 160.724 49.9277 160.943 50.119C161.189 50.283 161.435 50.5563 161.681 50.939L165.535 56.966C163.895 58.196 162.05 59.1253 160 59.754C157.95 60.3553 155.832 60.656 153.645 60.656Z" fill="url(#paint0_linear)"/>
<defs>
<linearGradient id="paint0_linear" x1="84" y1="-21" x2="117.363" y2="149.882" gradientUnits="userSpaceOnUse">
<stop stop-color="#2772F8"/>
<stop offset="1" stop-color="#4DF8F8" stop-opacity="0.98"/>
</linearGradient>
</defs>
</svg>
